<svg width="60" height="60" viewBox="0 0 60 60" fill="none" xmlns="http://www.w3.org/2000/svg" xmlns:xlink="http://www.w3.org/1999/xlink">
<path d="M30,7.5C24.08,7.5 19.286,11.695 19.286,16.875L19.286,22.5L51.429,22.5C56.156,22.5 60,25.863 60,30L60,52.5C60,56.637 56.156,60 51.429,60L8.571,60C3.844,60 0,56.637 0,52.5L0,30C0,25.863 3.844,22.5 8.571,22.5L10.714,22.5L10.714,16.875C10.714,7.559 19.353,0 30,0C37.701,0 44.33,3.949 47.424,9.645C48.442,11.52 47.531,13.758 45.388,14.637C43.246,15.516 40.687,14.73 39.683,12.855C37.955,9.68 34.272,7.5 30,7.5ZM34.286,45C36.656,45 38.571,43.324 38.571,41.25C38.571,39.176 36.656,37.5 34.286,37.5L25.714,37.5C23.344,37.5 21.429,39.176 21.429,41.25C21.429,43.324 23.344,45 25.714,45L34.286,45Z" fill="#000000" fill-opacity="0.5"/>
</svg>
