<svg width="70" height="72" viewBox="0 0 70 72" fill="none" xmlns="http://www.w3.org/2000/svg" xmlns:xlink="http://www.w3.org/1999/xlink">
<path d="M56.875,28.438C56.875,34.713 54.838,40.51 51.406,45.213L68.715,62.535C70.424,64.244 70.424,67.02 68.715,68.729C67.006,70.438 64.23,70.438 62.521,68.729L45.213,51.406C40.51,54.852 34.713,56.875 28.438,56.875C12.729,56.875 0,44.146 0,28.438C0,12.729 12.729,0 28.438,0C44.146,0 56.875,12.729 56.875,28.438ZM28.438,48.125C31.023,48.125 33.583,47.616 35.972,46.626C38.36,45.637 40.531,44.187 42.359,42.359C44.187,40.531 45.637,38.36 46.626,35.972C47.616,33.583 48.125,31.023 48.125,28.438C48.125,25.852 47.616,23.292 46.626,20.903C45.637,18.515 44.187,16.344 42.359,14.516C40.531,12.688 38.36,11.238 35.972,10.249C33.583,9.259 31.023,8.75 28.438,8.75C25.852,8.75 23.292,9.259 20.903,10.249C18.515,11.238 16.344,12.688 14.516,14.516C12.688,16.344 11.238,18.515 10.249,20.903C9.259,23.292 8.75,25.852 8.75,28.438C8.75,31.023 9.259,33.583 10.249,35.972C11.238,38.36 12.688,40.531 14.516,42.359C16.344,44.187 18.515,45.637 20.903,46.626C23.292,47.616 25.852,48.125 28.438,48.125Z" fill="#000000"/>
</svg>
