<svg width="60" height="46" viewBox="0 0 60 46" fill="none" xmlns="http://www.w3.org/2000/svg" xmlns:xlink="http://www.w3.org/1999/xlink">
<path d="M5.625,-0.5C2.52,-0.5 0,2.02 0,5.125C0,6.895 0.832,8.559 2.25,9.625L27.75,28.75C29.086,29.746 30.914,29.746 32.25,28.75L57.75,9.625C59.168,8.559 60,6.895 60,5.125C60,2.02 57.48,-0.5 54.375,-0.5L5.625,-0.5ZM0,12.625L0,37C0,41.137 3.363,44.5 7.5,44.5L52.5,44.5C56.637,44.5 60,41.137 60,37L60,12.625L34.5,31.75C31.828,33.754 28.172,33.754 25.5,31.75L0,12.625Z" fill="#000000"/>
</svg>
