<svg width="60" height="60" viewBox="0 0 60 60" fill="none" xmlns="http://www.w3.org/2000/svg" xmlns:xlink="http://www.w3.org/1999/xlink">
<path d="M46.758,45.023C44.168,40.523 39.305,37.5 33.75,37.5L26.25,37.5C20.695,37.5 15.832,40.523 13.242,45.023C17.367,49.617 23.344,52.5 30,52.5C36.656,52.5 42.633,49.605 46.758,45.023ZM0,30C0,22.044 3.161,14.413 8.787,8.787C14.413,3.161 22.044,0 30,0C37.956,0 45.587,3.161 51.213,8.787C56.839,14.413 60,22.044 60,30C60,37.956 56.839,45.587 51.213,51.213C45.587,56.839 37.956,60 30,60C22.044,60 14.413,56.839 8.787,51.213C3.161,45.587 0,37.956 0,30ZM30,31.875C32.238,31.875 34.384,30.986 35.966,29.404C37.549,27.821 38.438,25.675 38.438,23.438C38.438,21.2 37.549,19.054 35.966,17.471C34.384,15.889 32.238,15 30,15C27.762,15 25.616,15.889 24.034,17.471C22.451,19.054 21.562,21.2 21.562,23.438C21.562,25.675 22.451,27.821 24.034,29.404C25.616,30.986 27.762,31.875 30,31.875Z" fill="#000000" fill-opacity="0.5"/>
</svg>
